<svg width="60" height="60" viewBox="0 0 60 60" fill="none" xmlns="http://www.w3.org/2000/svg">
<g clip-path="url(#clip0_28_367)">
<path d="M24.0001 12.667H27.0001C27.1841 12.6671 27.3331 12.816 27.3331 13V19.1953L27.5851 19.3955L31.7853 22.7354L31.9122 22.8359C32.7058 23.5018 32.8987 24.6442 32.3761 25.5303L32.257 25.7109C31.5651 26.652 30.2422 26.8549 29.2999 26.166L27.4005 24.7383L26.3331 23.9355V35C26.3331 35.7363 25.7364 36.3329 25.0001 36.333H13.0001C12.2638 36.333 11.6671 35.7363 11.6671 35V23.9346L10.5997 24.7373L8.71008 26.1582C8.13531 26.5838 7.388 26.6896 6.72278 26.4463L6.59094 26.3926L6.46301 26.3301C5.87768 26.0222 5.46878 25.4583 5.3595 24.8057L5.34094 24.665C5.26591 23.9061 5.60492 23.1653 6.22766 22.7256L6.24231 22.7148L6.25793 22.7031L18.171 13.2314H18.172C18.6261 12.8691 19.259 12.846 19.7355 13.1631L19.8282 13.2314H19.8292L22.5851 15.4219L23.6671 16.2812V13C23.6671 12.8159 23.8161 12.667 24.0001 12.667ZM16.3331 35.667H21.6671V30.333H16.3331V35.667ZM18.5851 13.7549L6.63 23.252C6.36888 23.4342 6.17355 23.6948 6.07434 23.9961L6.03528 24.1377C5.96088 24.4734 6.00775 24.8225 6.16321 25.125L6.23645 25.251L6.24036 25.2578C6.45981 25.5883 6.80478 25.8131 7.19446 25.8828V25.8838C7.5853 25.9542 7.98617 25.8599 8.30579 25.627L8.30676 25.6279L8.31458 25.6221L18.8009 17.7334L18.7999 17.7324C18.9034 17.6547 19.0415 17.6458 19.1534 17.7041L19.1993 17.7334L29.6993 25.6328L29.7208 25.6484C30.0413 25.8702 30.4368 25.9529 30.8175 25.8809C31.1512 25.8177 31.4509 25.6399 31.6661 25.3809L31.7531 25.2646L31.754 25.2637C32.1863 24.6198 32.0336 23.7522 31.4142 23.292L31.4152 23.291L19.4152 13.7549L19.0001 13.4258L18.5851 13.7549ZM24.3331 16.8057L24.5831 17.0049L25.5831 17.8057L26.6671 18.6729V13.333H24.3331V16.8057ZM25.6671 23.4336L25.4005 23.2334L19.4005 18.7188L19.0001 18.417L18.5988 18.7188L12.5988 23.2334L12.3331 23.4336V35.667H15.6671V30C15.6671 29.8159 15.8161 29.667 16.0001 29.667H22.0001C22.1841 29.6671 22.3331 29.816 22.3331 30V35.667H25.6671V23.4336Z" fill="#0C221D" stroke="#0C221D" stroke-width="1.33333"/>
<path d="M19 21.667C20.2885 21.667 21.333 22.7115 21.333 24C21.333 25.2885 20.2885 26.333 19 26.333C17.7115 26.333 16.667 25.2885 16.667 24C16.667 22.7115 17.7115 21.667 19 21.667ZM19 22.333C18.0796 22.333 17.333 23.0796 17.333 24C17.333 24.9204 18.0796 25.667 19 25.667C19.9204 25.667 20.667 24.9204 20.667 24C20.667 23.0796 19.9204 22.333 19 22.333Z" fill="#0C221D" stroke="#0C221D" stroke-width="1.33333"/>
<path d="M54.999 5.66699L55.2216 5.67285C57.4371 5.78749 59.2125 7.56279 59.3271 9.77832L59.3329 10.001V40C59.3295 42.3923 57.3914 44.33 54.999 44.333L54.3329 44.334V47.667H55.9999C56.184 47.667 56.3329 47.8159 56.3329 48V54C56.3329 54.1841 56.184 54.333 55.9999 54.333H37.9999C37.8159 54.333 37.6669 54.1841 37.6669 54V48C37.6669 47.8159 37.8159 47.667 37.9999 47.667H39.6669V44.333H5.00092C2.68284 44.3301 0.79124 42.5109 0.672791 40.2217L0.666931 39.999V10.001C0.669802 7.6829 2.48903 5.7913 4.77826 5.67285L5.00092 5.66699H54.999ZM38.3329 53.667H55.6669V48.333H38.3329V53.667ZM41.999 17.333C41.079 17.3335 40.3329 18.0799 40.3329 19V25.0791L40.5566 25.2773C40.9875 25.6611 41.2573 26.1894 41.3193 26.7568L41.3329 27.002V32.333H40.6669V27C40.6669 26.0796 39.9204 25.333 38.9999 25.333C38.0795 25.333 37.3329 26.0796 37.3329 27V34.9219L37.4042 35.0625L40.2988 40.8438H40.2997C40.3109 40.8668 40.3195 40.891 40.3251 40.916L40.3329 40.9941V47.667H53.6669V43.0029C53.667 42.9836 53.668 42.9649 53.6708 42.9473L53.6835 42.8965L53.6845 42.8945L55.6328 37.0488L55.6669 36.9463V27C55.6669 26.0796 54.9204 25.333 53.9999 25.333C53.0795 25.333 52.3329 26.0796 52.3329 27V30.333H51.6669V25C51.6669 24.0796 50.9204 23.333 49.9999 23.333C49.0795 23.333 48.3329 24.0796 48.3329 25V30.333H47.6669V24C47.6669 23.0796 46.9204 22.333 45.9999 22.333C45.0795 22.333 44.3329 23.0796 44.3329 24V29.333H43.6669V19C43.6693 18.5702 43.5 18.1569 43.1972 17.8506H43.1982C43.1947 17.8469 43.1909 17.8435 43.1874 17.8398C43.1847 17.8371 43.1824 17.8338 43.1796 17.8311H43.1786C42.8685 17.5122 42.4435 17.3323 41.999 17.333ZM37.9999 14.333C36.5273 14.333 35.3329 15.5273 35.3329 17C35.3329 18.4727 36.5273 19.667 37.9999 19.667H39.6669V19C39.6669 17.7919 40.585 16.7981 41.7617 16.6787L41.9999 16.667H42.0038C42.5457 16.6637 43.0685 16.8536 43.4794 17.1992L43.6484 17.3574L43.6572 17.3662C44.0383 17.7444 44.2704 18.2482 44.3095 18.7842L44.3837 19.8135L45.291 19.3223C46.3654 18.7407 46.9048 17.5005 46.5966 16.3184C46.289 15.1395 45.2182 14.3203 43.9999 14.333H37.9999ZM39.6669 41.0781L39.5956 40.9375L36.6992 35.1553C36.6883 35.1326 36.6803 35.1086 36.6747 35.084L36.6669 35.0059V27C36.6669 25.7115 37.7114 24.667 38.9999 24.667H39.6669V20.333H37.9999C36.1591 20.333 34.6669 18.8408 34.6669 17C34.6669 15.1592 36.1591 13.667 37.9999 13.667H43.9999C45.8407 13.667 47.3329 15.1592 47.3329 17V17.002C47.3374 18.5181 46.3082 19.8416 44.8378 20.2109L44.3329 20.3379V22.1436L45.2324 21.8086C46.2499 21.4304 47.3928 21.8246 47.9609 22.749L48.3017 23.3027L48.8632 22.9766C49.4458 22.6381 50.1454 22.5735 50.7763 22.7949L50.9013 22.8428C51.5638 23.1197 52.0589 23.6914 52.2382 24.3867L52.4286 25.125L53.1347 24.8379C53.8527 24.546 54.6686 24.6309 55.3105 25.0645C55.9125 25.4712 56.2869 26.1338 56.329 26.8535L56.3329 26.998V37C56.3327 37.0183 56.3318 37.036 56.329 37.0527L56.3163 37.1035L56.3154 37.1055L54.4238 42.7832L54.1249 43.6787L55.0683 43.6611C57.0008 43.6247 58.5629 42.0972 58.662 40.1875L58.6669 40.001V10C58.6669 7.97507 57.0249 6.33301 54.9999 6.33301H53.3329V20.333H52.6669V6.33301H4.99994C2.97501 6.33301 1.33295 7.97507 1.33295 10V40C1.33295 42.0249 2.97501 43.667 4.99994 43.667H39.6669V41.0781Z" fill="#0C221D" stroke="#0C221D" stroke-width="1.33333"/>
</g>
<defs>
<clipPath id="clip0_28_367">
<rect width="60" height="60" fill="white"/>
</clipPath>
</defs>
</svg>
