<svg width="20" height="20" viewBox="0 0 20 20" fill="none" xmlns="http://www.w3.org/2000/svg">
<g clip-path="url(#clip0_28_281)">
<path d="M6.87463 4.42188H14.9996C15.1146 4.42188 15.2267 4.45572 15.3209 4.51855L15.4088 4.59082C15.5172 4.69924 15.5778 4.84667 15.5778 5V13.125C15.5778 13.2783 15.5172 13.4258 15.4088 13.5342C15.3004 13.6425 15.1529 13.7031 14.9996 13.7031C14.8466 13.703 14.6997 13.6423 14.5914 13.5342C14.483 13.4258 14.4215 13.2783 14.4215 13.125V6.39551L14.3414 6.47559L5.40881 15.4092C5.30035 15.5176 5.15297 15.5781 4.99963 15.5781C4.8848 15.5781 4.77351 15.5442 4.67932 15.4814L4.59045 15.4092C4.48208 15.3007 4.42151 15.1533 4.42151 15C4.42151 14.8847 4.45606 14.7731 4.51917 14.6787L4.59045 14.5908L13.524 5.6582L13.6041 5.57812H6.87463C6.75987 5.57806 6.64845 5.54414 6.55432 5.48145L6.46643 5.40918C6.35801 5.30076 6.29651 5.15333 6.29651 5C6.29651 4.88509 6.33139 4.77393 6.39417 4.67969L6.46643 4.59082C6.57474 4.48268 6.72158 4.42197 6.87463 4.42188Z" fill="#153E35" stroke="#153E35" stroke-width="0.09375"/>
</g>
<defs>
<clipPath id="clip0_28_281">
<rect width="20" height="20" fill="white"/>
</clipPath>
</defs>
</svg>
