<svg width="60" height="60" viewBox="0 0 60 60" fill="none" xmlns="http://www.w3.org/2000/svg">
<g clip-path="url(#clip0_34_313)">
<path d="M39 5.16699H43C43.184 5.16699 43.333 5.31594 43.333 5.5V13.8223L43.6465 14.0186L48.7461 17.21C49.4548 17.6938 49.8014 18.558 49.623 19.3984C49.4545 20.1901 48.852 20.8117 48.0771 21.0098L47.9199 21.0439H47.9179C47.3486 21.1466 46.7614 21.0096 46.2968 20.665L46.2783 20.6504L46.2588 20.6387L44.3584 19.4248L43.333 18.7705V54.5C43.333 54.6841 43.184 54.833 43 54.833H19C18.8159 54.833 18.667 54.684 18.667 54.5V18.7686L17.6396 19.4277L15.6836 20.6826L15.6689 20.6924L15.6552 20.7021C15.3534 20.9187 14.9977 21.0464 14.6289 21.0723L14.4707 21.0771H14.4619C14.3983 21.0773 14.3347 21.0749 14.2715 21.0693L14.082 21.0439H14.0791C13.2895 20.9054 12.6508 20.3335 12.4199 19.5752L12.3789 19.4219C12.1927 18.5901 12.5229 17.7273 13.2158 17.2334L30.2929 6.54883L30.292 6.54785C30.7252 6.27961 31.2736 6.27992 31.707 6.54785V6.54883L37.6465 10.2656L38.667 10.9033V5.5C38.667 5.31596 38.8159 5.16701 39 5.16699ZM19.333 54.167H22.667V44.5C22.667 44.316 22.8159 44.167 23 44.167H29C29.184 44.167 29.333 44.3159 29.333 44.5V54.167H42.667V34.833H19.333V54.167ZM23.333 54.167H28.667V44.833H23.333V54.167ZM30.6465 7.11523L13.6006 17.7803L13.5683 17.7998L13.539 17.8232C12.9471 18.2939 12.8213 19.14 13.2451 19.7627V19.7637C13.4378 20.051 13.7256 20.2587 14.0547 20.3525L14.1972 20.3857L14.205 20.3867C14.5787 20.449 14.9608 20.363 15.2734 20.1494L15.2744 20.1504L30.8193 10.2148L30.8183 10.2139C30.9274 10.1443 31.0675 10.1446 31.1767 10.2139V10.2148L46.6709 20.1152C46.9503 20.3202 47.2903 20.4232 47.6347 20.4043L47.8017 20.3857C48.3437 20.2901 48.7821 19.8972 48.9394 19.376L48.9668 19.2705C49.0862 18.7326 48.8903 18.1776 48.4697 17.833L48.3828 17.7676L48.3681 17.7568L48.3535 17.748L31.3535 7.11523L31 6.89355L30.6465 7.11523ZM39.333 11.3184L39.6465 11.5146L41.6465 12.7656L42.667 13.4033V5.83301H39.333V11.3184ZM42.667 18.3447L42.3584 18.1484L31.3584 11.125L31 10.8965L30.6416 11.125L19.6416 18.1504L19.333 18.3467V34.167H42.667V18.3447Z" fill="#0C221D" stroke="#0C221D" stroke-width="1.33333"/>
<path d="M23 26.167H29C29.1841 26.167 29.333 26.3159 29.333 26.5V30.5C29.333 30.6841 29.1841 30.833 29 30.833H23C22.8159 30.833 22.667 30.6841 22.667 30.5V26.5C22.667 26.3159 22.8159 26.167 23 26.167ZM23.333 30.167H28.667V26.833H23.333V30.167Z" fill="#0C221D" stroke="#0C221D" stroke-width="1.33333"/>
<path d="M33 26.167H39C39.1841 26.167 39.333 26.3159 39.333 26.5V30.5C39.333 30.6841 39.1841 30.833 39 30.833H33C32.8159 30.833 32.667 30.6841 32.667 30.5V26.5C32.667 26.3159 32.8159 26.167 33 26.167ZM33.333 30.167H38.667V26.833H33.333V30.167Z" fill="#0C221D" stroke="#0C221D" stroke-width="1.33333"/>
<path d="M27 19.5C27 21.709 28.791 23.5 31 23.5C33.209 23.5 35 21.709 35 19.5C35 17.291 33.209 15.5 31 15.5C28.791 15.5 27 17.291 27 19.5ZM33 19.5C33 20.6045 32.1045 21.5 31 21.5C29.8955 21.5 29 20.6045 29 19.5C29 18.3955 29.8955 17.5 31 17.5C32.1045 17.5 33 18.3955 33 19.5Z" fill="#0C221D"/>
<path d="M33 51.5H39C39.5522 51.5 40 51.0522 40 50.5V44.5C40 43.9478 39.5522 43.5 39 43.5H33C32.4478 43.5 32 43.9478 32 44.5V50.5C32 51.0522 32.4478 51.5 33 51.5ZM34 45.5H38V49.5H34V45.5Z" fill="#0C221D"/>
<path d="M58 48.522V48.5C58 46.291 56.209 44.5 54 44.5V42.3999C57.3872 41.773 60 38.0278 60 33.5C60 28.5371 56.8599 24.5 53 24.5C49.1401 24.5 46 28.5371 46 33.5C46 38.0249 48.6128 41.77 52 42.3999V45.0449C51.0474 45.5952 50.3628 46.5132 50.1069 47.583C47.7314 48.0176 46.0044 50.085 46 52.5V54.5C46 55.0522 46.4478 55.5 47 55.5H59C59.5522 55.5 60 55.0522 60 54.5V52.5C59.9951 50.9336 59.2544 49.4605 58 48.522ZM48 33.5C48 29.6411 50.2432 26.5 53 26.5C55.7568 26.5 58 29.6411 58 33.5C58 36.8799 56.2788 39.708 54 40.3589V36.9141L56.707 34.207L55.293 32.793L54 34.0859V30.5H52V35.1348L50.7202 33.8071L49.2798 35.1929L52 38.0171V40.3589C49.7212 39.708 48 36.8799 48 33.5ZM58 53.5H48V52.5C48 50.8433 49.3433 49.5 51 49.5C51.5522 49.5 52 49.0522 52 48.5C52 47.3955 52.8955 46.5 54 46.5C55.1045 46.5 56 47.3955 56 48.5C55.998 48.6177 55.9854 48.7354 55.9619 48.8511C55.8887 49.271 56.0894 49.6914 56.4619 49.898C57.4063 50.4248 57.9937 51.4189 58 52.5V53.5Z" fill="#0C221D"/>
<path d="M13 41.5C11.3432 41.5 9.99997 42.8433 9.99997 44.5V45.5H8.99997V44.5C8.99997 42.8433 7.65671 41.5 5.99997 41.5C4.34323 41.5 2.99997 42.8433 2.99997 44.5V45.5H0.999969C0.447723 45.5 -3.05176e-05 45.9478 -3.05176e-05 46.5V49.5C-3.05176e-05 50.0522 0.447723 50.5 0.999969 50.5H2.99997V54.5C2.99997 55.0522 3.44772 55.5 3.99997 55.5H7.99997C8.55222 55.5 8.99997 55.0522 8.99997 54.5V50.5H9.99997V54.5C9.99997 55.0522 10.4477 55.5 11 55.5H15C15.5522 55.5 16 55.0522 16 54.5V44.5C16 42.8433 14.6567 41.5 13 41.5ZM1.99997 48.5V47.5H2.99997V48.5H1.99997ZM6.99997 53.5H4.99997V44.5C4.99997 43.9478 5.44772 43.5 5.99997 43.5C6.55222 43.5 6.99997 43.9478 6.99997 44.5V53.5ZM8.99997 48.5V47.5H9.99997V48.5H8.99997ZM14 53.5H12V44.5C12 43.9478 12.4477 43.5 13 43.5C13.5522 43.5 14 43.9478 14 44.5V53.5Z" fill="#0C221D"/>
</g>
<defs>
<clipPath id="clip0_34_313">
<rect width="60" height="60" fill="white"/>
</clipPath>
</defs>
</svg>
