<svg width="60" height="60" viewBox="0 0 60 60" fill="none" xmlns="http://www.w3.org/2000/svg">
<g clip-path="url(#clip0_34_331)">
<path d="M38.5005 0.666992C38.5211 0.667024 38.542 0.668507 38.563 0.672852L38.6264 0.693359L38.6274 0.694336L45.4428 3.61328L45.5678 3.66699H47.3569V1C47.3569 0.815953 47.5059 0.667007 47.6899 0.666992H55.6899C55.874 0.666992 56.0229 0.815944 56.0229 1V17C56.0229 17.1841 55.874 17.333 55.6899 17.333H47.6899C47.5059 17.333 47.3569 17.184 47.3569 17V14.333H45.852L45.7104 14.8096C45.4187 15.7867 44.5918 16.6685 43.4253 17.3174C42.2662 17.962 40.844 18.3329 39.4966 18.333C38.1486 18.333 36.7253 17.9621 35.5659 17.3174C34.3991 16.6685 33.5722 15.7867 33.2807 14.8096L33.1391 14.333H28.9067L29.6059 15.3721C31.5385 18.2465 31.4856 22.0045 29.5044 24.8174L29.3071 25.0869H29.3061C27.2008 27.8372 23.6237 28.9889 20.3247 28.0117L20.0063 27.9111C16.7272 26.7956 14.4916 23.774 14.3628 20.3359L14.3569 20.002V20.001C14.3592 18.6107 14.713 17.2435 15.3872 16.0283L15.6352 15.582L15.268 15.2266C15.1066 15.0702 14.9622 14.8983 14.8354 14.7129C14.0944 13.4879 14.2366 11.9354 15.1596 10.8682L15.3549 10.6611L15.3608 10.6553L23.5034 2.52344H23.5044C24.6177 1.41103 26.1019 0.754421 27.6665 0.674805L27.9809 0.666992H38.5005ZM27.979 1.33301C26.5723 1.33463 25.2201 1.85937 24.1821 2.79883L23.978 2.99219L15.8462 11.1162C14.9768 11.9463 14.7809 13.2595 15.3696 14.3066L15.3833 14.3311L15.3999 14.3545C15.4142 14.3756 15.4294 14.3931 15.4409 14.4072V14.4082L15.9292 15.0693L16.4751 14.4551C18.0044 12.7359 20.1773 11.7264 22.477 11.666V11.667H23.1626V11C23.1626 9.15915 24.6553 7.66699 26.4966 7.66699H36.8296V8.33301H26.4966C25.0233 8.33301 23.8296 9.52742 23.8296 11C23.8296 12.4726 25.0233 13.667 26.4966 13.667H33.4966C33.6804 13.6672 33.8296 13.8161 33.8296 14C33.8296 15.1175 34.7113 16.042 35.7075 16.6396C36.7452 17.2621 38.1139 17.667 39.4966 17.667C40.8792 17.6669 42.248 17.2622 43.2856 16.6396C44.2817 16.042 45.1626 15.1174 45.1626 14C45.1626 13.8159 45.3125 13.667 45.4966 13.667H47.3569V4.33301H45.4956C45.474 4.33316 45.4517 4.33155 45.4301 4.32715L45.3667 4.30664H45.3647L38.5522 1.3877L38.4272 1.33301H27.979ZM48.0229 16.667H55.3569V1.33301H48.0229V16.667ZM15.4663 14.4395V14.4404L15.4653 14.4395L15.4643 14.4375C15.4651 14.4383 15.466 14.4391 15.4663 14.4395ZM30.3569 19.999C30.3542 17.9356 29.5187 15.9599 28.0385 14.5215L27.8442 14.333H26.4897C25.3129 14.3434 24.2232 13.7153 23.6421 12.6924L23.4604 12.373L23.0932 12.3564L22.9272 12.3438C22.8621 12.3387 22.7792 12.333 22.6899 12.333H22.4907L22.4819 12.334C20.0379 12.4003 17.7728 13.6302 16.3872 15.6445C15.5507 16.842 15.0795 18.2541 15.0278 19.71L15.0229 20C15.0229 24.2344 18.4555 27.667 22.6899 27.667C26.9243 27.667 30.3569 24.2344 30.3569 20V19.999Z" fill="#0C221D" stroke="#0C221D" stroke-width="1.33333"/>
<path d="M20.4978 30.723C20.5987 30.652 20.7285 30.6435 20.8367 30.6967L20.8816 30.723L25.3054 33.8441L26.3562 34.5863V32.0004C26.3562 31.8163 26.5061 31.6664 26.6902 31.6664H30.6902C30.8741 31.6665 31.0232 31.8164 31.0232 32.0004V37.8851L31.3054 38.0844L36.4626 41.725C37.0466 42.1362 37.381 42.8111 37.3601 43.5189L37.3513 43.6615C37.2823 44.3729 36.8603 44.9978 36.2341 45.3295L36.1052 45.392C35.4519 45.6833 34.6997 45.6246 34.1023 45.2435L33.9851 45.1635L33.9841 45.1625L32.0837 43.7699L31.0232 42.9916V58.0004C31.023 58.7364 30.4263 59.3332 29.6902 59.3334H11.6902C10.954 59.3334 10.3564 58.7365 10.3562 58.0004V42.9916L9.29565 43.7699L7.40015 45.1595C6.50922 45.8008 5.28957 45.6512 4.5769 44.847L4.44116 44.6781C3.75701 43.7284 3.97275 42.4034 4.92261 41.7191L4.92163 41.7181L20.4978 30.723ZM15.0232 58.6664H20.3562V51.3334H15.0232V58.6664ZM20.3054 31.6791L5.30542 42.2689L5.3064 42.2699C4.92097 42.5194 4.6766 42.9337 4.64526 43.3871V43.5902C4.67876 44.0673 4.94502 44.4924 5.34741 44.7338L5.52808 44.8256C6.01809 45.0328 6.57943 44.9536 6.99487 44.6244L6.99585 44.6263L20.489 34.7269V34.726C20.5923 34.6502 20.728 34.6411 20.8386 34.6976L20.8835 34.726L20.8845 34.7269L34.3787 44.6263C34.6965 44.8614 35.0968 44.9544 35.4861 44.8851L35.4871 44.8861L35.489 44.8851C35.4903 44.8849 35.4917 44.8854 35.4929 44.8851L35.4919 44.8842C35.8813 44.8152 36.225 44.5905 36.4441 44.2631L36.4431 44.2621C36.8547 43.6482 36.7369 42.8314 36.1882 42.3578L36.073 42.267L21.074 31.6791L20.6902 31.4076L20.3054 31.6791ZM27.0232 35.0619L27.3054 35.2611L29.3054 36.6722L30.3562 37.4144V32.3334H27.0232V35.0619ZM30.3562 42.5023L30.0837 42.3021L21.0837 35.7025L20.6902 35.4135L20.2957 35.7025L11.2957 42.3021L11.0232 42.5023V58.6664H14.3562V51.0004C14.3562 50.8163 14.5061 50.6664 14.6902 50.6664H20.6902C20.8741 50.6665 21.0232 50.8164 21.0232 51.0004V58.6664H30.3562V42.5023Z" fill="#0C221D" stroke="#0C221D" stroke-width="1.33333"/>
<path d="M23.6899 50.667H27.6899C27.874 50.667 28.0229 50.8159 28.0229 51V55C28.0229 55.1841 27.874 55.333 27.6899 55.333H23.6899C23.5059 55.333 23.3569 55.1841 23.3569 55V51C23.3569 50.8159 23.5059 50.667 23.6899 50.667ZM24.0229 54.667H27.3569V51.333H24.0229V54.667Z" fill="#0C221D" stroke="#0C221D" stroke-width="1.33333"/>
<path d="M16.6899 44C16.6899 46.209 18.481 48 20.6899 48C22.8989 48 24.6899 46.209 24.6899 44C24.6899 41.791 22.8989 40 20.6899 40C18.481 40 16.6899 41.791 16.6899 44ZM22.6899 44C22.6899 45.1045 21.7944 46 20.6899 46C19.5855 46 18.6899 45.1045 18.6899 44C18.6899 42.8955 19.5855 42 20.6899 42C21.7944 42 22.6899 42.8955 22.6899 44Z" fill="#0C221D"/>
<path d="M21.6899 17H23.6899C24.2422 17 24.6899 17.4478 24.6899 18H26.6899C26.6899 16.3433 25.3467 15 23.6899 15V14H21.6899V15C20.0332 15 18.6899 16.3433 18.6899 18C18.6899 19.6567 20.0332 21 21.6899 21H23.6899C24.2422 21 24.6899 21.4478 24.6899 22C24.6899 22.5522 24.2422 23 23.6899 23H21.6899C21.1377 23 20.6899 22.5522 20.6899 22H18.6899C18.6899 23.6567 20.0332 25 21.6899 25V26H23.6899V25C25.3467 25 26.6899 23.6567 26.6899 22C26.6899 20.3433 25.3467 19 23.6899 19H21.6899C21.1377 19 20.6899 18.5522 20.6899 18C20.6899 17.4478 21.1377 17 21.6899 17Z" fill="#0C221D"/>
<path d="M52.6899 42H42.6899C41.5854 42 40.6899 42.8955 40.6899 44V46C40.6929 46.0884 40.7017 46.1768 40.7168 46.2642C40.0854 46.6138 39.6924 47.2778 39.6899 48V50C39.6924 50.7222 40.0854 51.3862 40.7168 51.7358C40.7017 51.8232 40.6929 51.9116 40.6899 52V54C40.6929 54.0884 40.7017 54.1768 40.7168 54.2642C40.0854 54.6138 39.6924 55.2778 39.6899 56V58C39.6899 59.1045 40.5854 60 41.6899 60H51.6899C52.7944 60 53.6899 59.1045 53.6899 58V56C53.687 55.9116 53.6782 55.8232 53.6631 55.7358C54.2944 55.3862 54.6875 54.7222 54.6899 54V52C54.6875 51.2778 54.2944 50.6138 53.6631 50.2642C53.6782 50.1768 53.687 50.0884 53.6899 50V48C53.687 47.9116 53.6782 47.8232 53.6631 47.7358C54.2944 47.3862 54.6875 46.7222 54.6899 46V44C54.6899 42.8955 53.7944 42 52.6899 42ZM42.6899 44H52.6899V46H42.6899V44ZM51.6899 50H41.6899V48H51.6899V50ZM52.6899 52V54H42.6899V52H52.6899ZM51.6899 58H41.6899V56H51.6899V58Z" fill="#0C221D"/>
</g>
<defs>
<clipPath id="clip0_34_331">
<rect width="60" height="60" fill="white"/>
</clipPath>
</defs>
</svg>
