<svg width="60" height="60" viewBox="0 0 60 60" fill="none" xmlns="http://www.w3.org/2000/svg">
<g clip-path="url(#clip0_28_502)">
<path d="M2.80237 19.2546C3.68813 18.9085 4.67583 18.9508 5.526 19.365L5.69495 19.4529C6.52864 19.9189 7.12488 20.7125 7.34338 21.6365L7.38147 21.823L8.54846 28.4431L8.651 29.0203L9.23596 28.9929C10.2954 28.9424 11.3186 29.3884 12.0026 30.199V30.198L20.9928 40.9119V40.9109C21.0126 40.9346 21.0289 40.9607 21.0416 40.988L21.068 41.073V41.074L22.2916 48.0115L22.4069 48.6667L23.0631 48.5515L24.0602 48.3767L24.0651 48.3757C24.1311 48.3637 24.1991 48.3712 24.2604 48.3982L24.319 48.4314L24.3219 48.4333C24.3961 48.4853 24.4469 48.5653 24.4635 48.656V48.657L25.5201 54.6462C25.5494 54.8118 25.4562 54.9715 25.3053 55.031L25.2379 55.0496L9.26721 57.866L9.26135 57.8669C9.24224 57.8705 9.2233 57.8708 9.20471 57.8708C9.0577 57.8704 8.92902 57.7786 8.87952 57.6443L8.86292 57.5837L7.80725 51.5974C7.77828 51.4322 7.87122 51.273 8.02209 51.2136L8.08948 51.1951H8.09045L9.0885 51.0183L9.74377 50.9031L9.62854 50.2468L9.51428 49.5994L9.47327 49.3699L9.29846 49.2156L4.69202 45.1609V45.1599L4.651 45.1179C4.62642 45.0876 4.60666 45.0533 4.59338 45.0164L4.57874 44.9587L0.733032 23.1453L0.731079 23.1326L0.685181 22.8289C0.524568 21.3134 1.37448 19.852 2.80237 19.2546ZM23.1813 49.2351L9.20667 51.7019L8.55042 51.8171L8.66663 52.4744L9.37659 56.4656L9.4928 57.1199L10.1471 57.0046L24.1158 54.5408L24.7721 54.4255L24.6569 53.7703L23.9528 49.7761L23.8375 49.1199L23.1813 49.2351ZM5.34827 20.0564C4.68325 19.6872 3.8954 19.6175 3.17932 19.8582L3.03772 19.9109L3.00842 19.9226C1.82264 20.4625 1.16587 21.7468 1.4176 23.0232L1.41663 23.0242L5.20178 44.488L5.2428 44.7185L5.41858 44.8728L10.027 48.9236V48.9246C10.0863 48.977 10.1266 49.0472 10.1412 49.1248V49.1257L10.317 50.1248L10.4323 50.782L11.0885 50.6658L21.0709 48.9041L21.7262 48.7888L21.611 48.1326L20.4342 41.4626L20.4039 41.2869L20.2887 41.1501L11.4703 30.6443H11.4694C10.8904 29.9494 10.0036 29.5973 9.11292 29.698L8.95569 29.7205C8.82653 29.7398 8.69564 29.7727 8.56702 29.821L8.54749 29.8279L8.52893 29.8357C8.51851 29.8404 8.50945 29.8446 8.50061 29.8474L8.49182 29.8494L8.48401 29.8523C8.25747 29.9298 8.0442 30.0391 7.84924 30.1755L7.66077 30.321H7.65979C6.60258 31.2206 6.41054 32.7619 7.17249 33.8875L7.33752 34.1062L7.3385 34.1082L14.358 42.4734L13.8258 42.9197L6.80725 34.5535H6.80823C5.61264 33.1203 5.79581 30.9915 7.21741 29.7839C7.3373 29.6893 7.4644 29.6014 7.59827 29.5212L7.99182 29.2859L7.91272 28.8347L6.69592 21.9412V21.9402L6.66467 21.7917C6.50137 21.1051 6.07522 20.5098 5.47815 20.1335L5.34827 20.0564Z" fill="#0C221D" stroke="#0C221D" stroke-width="1.33178"/>
<path d="M54.305 19.4528C55.1927 18.9573 56.2555 18.8847 57.2015 19.2555C58.6268 19.8538 59.4757 21.3142 59.3157 22.8278L59.2698 23.1305L59.2679 23.1432L55.4222 44.9567C55.4118 45.0153 55.3867 45.0704 55.3499 45.1158L55.3089 45.1578L55.3079 45.1588L50.7025 49.2135L50.5267 49.3678L50.4866 49.5973L50.3724 50.2448L50.2562 50.901L50.9124 51.0162L51.9105 51.193C52.0999 51.2263 52.2266 51.4063 52.1937 51.5953L51.137 57.5836C51.1078 57.7499 50.9636 57.8714 50.7952 57.8717L50.7396 57.8668L50.7337 57.8658L34.762 55.0504H34.763C34.5974 55.0211 34.4795 54.8789 34.4749 54.7174L34.4798 54.6471L34.4808 54.6461L35.5364 48.6578C35.5659 48.492 35.7079 48.3747 35.8694 48.3707L35.9388 48.3766H35.9407L36.9378 48.5514L37.5931 48.6666L37.7083 48.0114L38.9319 41.0739C38.9423 41.0148 38.9688 40.9588 39.0081 40.9117L39.0071 40.9108L47.9993 30.1979L47.9984 30.1969C48.6821 29.3868 49.7049 28.9423 50.764 28.9928L51.3499 29.0211L51.4515 28.443L52.6194 21.8219L52.6185 21.8209C52.786 20.8812 53.341 20.0588 54.1419 19.5504L54.305 19.4528ZM36.0452 49.776L35.3421 53.7701L35.2269 54.4254L35.8821 54.5406L49.8528 57.0045L50.5081 57.1207L50.6243 56.4655L51.3333 52.4742L51.4505 51.818L50.7933 51.7018L36.8167 49.236L36.1605 49.1198L36.0452 49.776ZM56.8275 19.861C56.1583 19.6334 55.426 19.6782 54.7894 19.986L54.6546 20.0553C53.9879 20.4248 53.512 21.0585 53.3392 21.7955L53.3089 21.944L52.0921 28.8365L52.012 29.2887L52.4066 29.524C52.5365 29.6015 52.661 29.6866 52.7786 29.7789C54.2043 30.9856 54.3911 33.1174 53.1956 34.5533L46.1751 42.9186L45.6458 42.4733L52.6673 34.1071L52.6683 34.1051C53.6194 32.9629 53.4694 31.2662 52.3323 30.3092H52.3314C52.0909 30.1067 51.8149 29.9517 51.5189 29.8512L51.511 29.8483L51.5042 29.8463L51.4749 29.8356L51.4554 29.8268L51.4349 29.819L51.2435 29.7594C51.1874 29.7451 51.13 29.7343 51.0716 29.7252L51.0726 29.7242C51.0651 29.7229 51.0576 29.7217 51.0501 29.7203C51.0476 29.72 51.0448 29.7197 51.0423 29.7194H51.0413C50.1593 29.567 49.2625 29.8663 48.6507 30.5114L48.5345 30.6432L39.7151 41.149L39.6009 41.2858L39.5696 41.4615L38.3939 48.1324L38.2786 48.7877L38.9339 48.903L48.9163 50.6666L49.5726 50.7828L49.6878 50.1266L49.8636 49.1276C49.8773 49.0503 49.9164 48.9795 49.9759 48.9264L54.5823 44.8717L54.7581 44.7174L54.7982 44.4879L58.5609 23.1305L58.5794 23.0416C58.8244 21.8413 58.2636 20.6318 57.2142 20.0367L56.9974 19.9254L56.9837 19.9196L56.9691 19.9137L56.8275 19.861Z" fill="#0C221D" stroke="#0C221D" stroke-width="1.33178"/>
<path d="M29.7993 2.31958C29.9048 2.24506 30.0407 2.23635 30.1538 2.29224L30.2007 2.31958L30.2017 2.32056L34.6851 5.47974L35.7339 6.21997V3.61743C35.734 3.42567 35.8898 3.26998 36.0815 3.26978H40.1362C40.3281 3.26978 40.4837 3.42555 40.4839 3.61743V9.57739L40.7651 9.77661L45.9888 13.4719C46.8919 14.1251 47.1399 15.3478 46.5952 16.2942L46.4761 16.4797C45.7815 17.4449 44.4373 17.6659 43.4702 16.9749H43.4712L41.5454 15.5559L40.4839 14.7747V29.9719C40.4838 30.7236 39.8743 31.3333 39.1226 31.3333H20.8774C20.1258 31.3331 19.5162 30.7235 19.5161 29.9719V14.7678L18.4556 15.5491L16.5298 16.968L16.5239 16.9729C15.9385 17.4135 15.1729 17.5252 14.4907 17.2776L14.356 17.2229H14.355C13.6849 16.9272 13.2143 16.3134 13.0972 15.5969L13.0786 15.4524C13.0098 14.7231 13.3158 14.0124 13.8843 13.5608L14.0015 13.4739L14.0073 13.47L29.7993 2.31958ZM24.2661 30.6379H29.6528V23.2239H24.2661V30.6379ZM29.6157 3.30103L14.4116 14.0354L14.4126 14.0364C14.0279 14.2926 13.789 14.7117 13.7622 15.1663L13.7642 15.3674V15.3684C13.8023 15.8414 14.0659 16.2627 14.4653 16.5042L14.645 16.5959L14.646 16.5969C15.1348 16.806 15.6973 16.7316 16.1167 16.4065L16.1177 16.4084L29.7925 6.37329C29.8999 6.29484 30.0407 6.28539 30.1558 6.34399L30.2036 6.37329L43.8813 16.4084V16.4075C44.2499 16.684 44.7237 16.7697 45.1606 16.6448L45.3472 16.5774C45.8345 16.3632 46.1676 15.9011 46.2153 15.3704C46.2631 14.844 46.0226 14.3328 45.5874 14.0334H45.5884L30.3843 3.30103L30.0005 3.02954L29.6157 3.30103ZM36.4292 6.71704L36.7114 6.91626L38.7388 8.34595L39.7886 9.08618V3.96509H36.4292V6.71704ZM39.7886 14.2678L39.5161 14.0686L30.394 7.37915L30.0005 7.09009L29.606 7.37915L20.4839 14.0686L20.2114 14.2678V30.6379H23.5708V22.8762C23.5709 22.6843 23.7265 22.5286 23.9185 22.5286H30.0005C30.1923 22.5287 30.348 22.6844 30.3481 22.8762V30.6379H39.7886V14.2678Z" fill="#0C221D" stroke="#0C221D" stroke-width="1.33178"/>
<path d="M32.0274 22.8764V26.9309C32.0274 27.4906 32.4813 27.9445 33.0411 27.9445H37.0955C37.6553 27.9445 38.1091 27.4906 38.1091 26.9309V22.8764C38.1091 22.3166 37.6553 21.8628 37.0955 21.8628H33.0411C32.4813 21.8628 32.0274 22.3166 32.0274 22.8764ZM34.0547 23.89H36.0819V25.9173H34.0547V23.89Z" fill="#0C221D"/>
<path d="M30.0002 19.8356C32.2393 19.8356 34.0547 18.0202 34.0547 15.7812C34.0547 13.5421 32.2393 11.7267 30.0002 11.7267C27.7611 11.7267 25.9457 13.5421 25.9457 15.7812C25.9457 18.0202 27.7611 19.8356 30.0002 19.8356ZM30.0002 13.7539C31.1197 13.7539 32.0274 14.6616 32.0274 15.7812C32.0274 16.9007 31.1197 17.8084 30.0002 17.8084C28.8807 17.8084 27.973 16.9007 27.973 15.7812C27.973 14.6616 28.8807 13.7539 30.0002 13.7539Z" fill="#0C221D"/>
</g>
<defs>
<clipPath id="clip0_28_502">
<rect width="60" height="60" fill="white"/>
</clipPath>
</defs>
</svg>
