<svg width="60" height="60" viewBox="0 0 60 60" fill="none" xmlns="http://www.w3.org/2000/svg">
<g clip-path="url(#clip0_34_157)">
<path d="M15 42.667H21C21.1841 42.667 21.333 42.8159 21.333 43V49C21.333 49.1841 21.1841 49.333 21 49.333H15C14.8159 49.333 14.667 49.1841 14.667 49V43C14.667 42.8159 14.8159 42.667 15 42.667ZM15.333 48.667H20.667V43.333H15.333V48.667Z" fill="#0C221D" stroke="#0C221D" stroke-width="1.33333"/>
<path d="M25 31.667H35C35.7363 31.667 36.333 32.2637 36.333 33V37C36.333 37.7363 35.7363 38.333 35 38.333H25C24.2637 38.333 23.667 37.7363 23.667 37V33C23.667 32.2637 24.2637 31.667 25 31.667ZM24.333 37.667H29.667V35.333H24.333V37.667ZM30.333 37.667H35.667V35.333H30.333V37.667ZM24.333 34.667H29.667V32.333H24.333V34.667ZM30.333 34.667H35.667V32.333H30.333V34.667Z" fill="#0C221D" stroke="#0C221D" stroke-width="1.33333"/>
<mask id="path-3-inside-1_34_157" fill="white">
<path d="M54.913 51.0689C54.664 49.7539 53.8984 48.5933 52.7866 47.8477C51.6752 47.1016 50.3115 46.832 48.9999 47.1001V29.4141L50.7929 31.207C52.0117 32.4258 53.9882 32.4258 55.207 31.207C56.4257 29.9883 56.4257 28.0117 55.207 26.793L48.9999 20.5859V8C50.1044 8 50.9999 7.10449 50.9999 6V4C50.9999 2.89551 50.1044 2 48.9999 2H38.9999C37.8954 2 36.9999 2.89551 36.9999 4V6C36.9999 7.10449 37.8954 8 38.9999 8V10.5859L32.121 3.70703C30.934 2.57422 29.0659 2.57422 27.8788 3.70703L4.79291 26.793C3.57416 28.0117 3.57416 29.9883 4.79291 31.207C6.01166 32.4258 7.98822 32.4258 9.20697 31.207L10.9999 29.4141V50.3818C9.91107 49.1187 8.14984 48.6675 6.58783 49.252C5.02533 49.8359 3.99261 51.332 3.99994 53C1.79095 53 -6.10352e-05 54.791 -6.10352e-05 57C-6.10352e-05 57.5523 0.447693 58 0.999939 58H58.9999C59.5522 58 59.9999 57.5523 59.9999 57C59.996 54.04 57.8378 51.5234 54.913 51.0689ZM45.9921 49.041C45.9921 49.0269 45.9999 49.0151 45.9999 49V43C45.9999 42.4478 45.5522 42 44.9999 42H38.9999C38.4477 42 37.9999 42.4478 37.9999 43V49C37.9999 49.5523 38.4477 50 38.9999 50H44.9999C45.1821 49.9951 45.3593 49.9395 45.5112 49.8389C45.1791 50.5112 45.0043 51.2505 44.9999 52V52.1001C43.0405 52.5059 41.5107 54.0396 41.1098 56H36.9999V41C36.9999 40.4478 36.5522 40 35.9999 40H23.9999C23.4477 40 22.9999 40.4478 22.9999 41V56H16.9111C16.5444 53.856 15.0488 52.0772 12.9999 51.3482V28H46.9999V48.0259C46.6166 48.314 46.2773 48.6558 45.9921 49.041ZM43.9999 44V48H39.9999V44H43.9999ZM38.9999 4H48.9999V6H38.9999V4ZM40.9999 8H46.9999V18.5859L40.9999 12.5859V8ZM7.79291 29.793C7.35492 30.231 6.64496 30.231 6.20697 29.793C5.76898 29.355 5.76898 28.645 6.20697 28.207L29.2929 5.12109C29.6835 4.73047 30.3163 4.73047 30.707 5.12109L53.7929 28.207C54.2309 28.645 54.2309 29.355 53.7929 29.793C53.3549 30.231 52.645 30.231 52.207 29.793L32.121 9.70703C30.9496 8.53565 29.0502 8.53565 27.8788 9.70703L7.79291 29.793ZM29.2929 11.1211C29.6835 10.7305 30.3163 10.7305 30.707 11.1211L45.5859 26H14.414L29.2929 11.1211ZM2.26898 56C2.79535 55.0933 3.935 54.7495 4.87494 55.2139C5.25922 55.4033 5.72113 55.3272 6.02386 55.0239C6.32709 54.7212 6.40326 54.2593 6.21381 53.875C6.07611 53.6035 6.00287 53.3042 5.99994 53C5.99554 52.0239 6.69867 51.189 7.66107 51.0269C8.62347 50.8648 9.56146 51.4233 9.87689 52.3472C10.0219 52.7627 10.4218 53.0352 10.8618 53.0171C10.9086 53.0176 10.955 53.0117 10.9999 53C12.8232 53.0029 14.415 54.2354 14.874 56H2.26898ZM24.9999 56V42H34.9999V56H24.9999ZM43.1708 56C43.581 54.8179 44.687 54.0186 45.9379 54C45.9721 54 46.0717 54.0151 46.1059 54.0161C46.4223 54.0254 46.725 53.8877 46.9257 53.6431C47.1249 53.3955 47.1943 53.0679 47.1127 52.7612C47.0419 52.5132 47.0043 52.2573 46.9999 52C46.9999 50.3433 48.3432 49 49.9999 49C51.6567 49 52.9999 50.3433 52.9999 52C52.9999 52.5523 53.4477 53 53.9999 53C55.8232 53.0029 57.415 54.2354 57.874 56H43.1708Z"/>
</mask>
<path d="M54.913 51.0689C54.664 49.7539 53.8984 48.5933 52.7866 47.8477C51.6752 47.1016 50.3115 46.832 48.9999 47.1001V29.4141L50.7929 31.207C52.0117 32.4258 53.9882 32.4258 55.207 31.207C56.4257 29.9883 56.4257 28.0117 55.207 26.793L48.9999 20.5859V8C50.1044 8 50.9999 7.10449 50.9999 6V4C50.9999 2.89551 50.1044 2 48.9999 2H38.9999C37.8954 2 36.9999 2.89551 36.9999 4V6C36.9999 7.10449 37.8954 8 38.9999 8V10.5859L32.121 3.70703C30.934 2.57422 29.0659 2.57422 27.8788 3.70703L4.79291 26.793C3.57416 28.0117 3.57416 29.9883 4.79291 31.207C6.01166 32.4258 7.98822 32.4258 9.20697 31.207L10.9999 29.4141V50.3818C9.91107 49.1187 8.14984 48.6675 6.58783 49.252C5.02533 49.8359 3.99261 51.332 3.99994 53C1.79095 53 -6.10352e-05 54.791 -6.10352e-05 57C-6.10352e-05 57.5523 0.447693 58 0.999939 58H58.9999C59.5522 58 59.9999 57.5523 59.9999 57C59.996 54.04 57.8378 51.5234 54.913 51.0689ZM45.9921 49.041C45.9921 49.0269 45.9999 49.0151 45.9999 49V43C45.9999 42.4478 45.5522 42 44.9999 42H38.9999C38.4477 42 37.9999 42.4478 37.9999 43V49C37.9999 49.5523 38.4477 50 38.9999 50H44.9999C45.1821 49.9951 45.3593 49.9395 45.5112 49.8389C45.1791 50.5112 45.0043 51.2505 44.9999 52V52.1001C43.0405 52.5059 41.5107 54.0396 41.1098 56H36.9999V41C36.9999 40.4478 36.5522 40 35.9999 40H23.9999C23.4477 40 22.9999 40.4478 22.9999 41V56H16.9111C16.5444 53.856 15.0488 52.0772 12.9999 51.3482V28H46.9999V48.0259C46.6166 48.314 46.2773 48.6558 45.9921 49.041ZM43.9999 44V48H39.9999V44H43.9999ZM38.9999 4H48.9999V6H38.9999V4ZM40.9999 8H46.9999V18.5859L40.9999 12.5859V8ZM7.79291 29.793C7.35492 30.231 6.64496 30.231 6.20697 29.793C5.76898 29.355 5.76898 28.645 6.20697 28.207L29.2929 5.12109C29.6835 4.73047 30.3163 4.73047 30.707 5.12109L53.7929 28.207C54.2309 28.645 54.2309 29.355 53.7929 29.793C53.3549 30.231 52.645 30.231 52.207 29.793L32.121 9.70703C30.9496 8.53565 29.0502 8.53565 27.8788 9.70703L7.79291 29.793ZM29.2929 11.1211C29.6835 10.7305 30.3163 10.7305 30.707 11.1211L45.5859 26H14.414L29.2929 11.1211ZM2.26898 56C2.79535 55.0933 3.935 54.7495 4.87494 55.2139C5.25922 55.4033 5.72113 55.3272 6.02386 55.0239C6.32709 54.7212 6.40326 54.2593 6.21381 53.875C6.07611 53.6035 6.00287 53.3042 5.99994 53C5.99554 52.0239 6.69867 51.189 7.66107 51.0269C8.62347 50.8648 9.56146 51.4233 9.87689 52.3472C10.0219 52.7627 10.4218 53.0352 10.8618 53.0171C10.9086 53.0176 10.955 53.0117 10.9999 53C12.8232 53.0029 14.415 54.2354 14.874 56H2.26898ZM24.9999 56V42H34.9999V56H24.9999ZM43.1708 56C43.581 54.8179 44.687 54.0186 45.9379 54C45.9721 54 46.0717 54.0151 46.1059 54.0161C46.4223 54.0254 46.725 53.8877 46.9257 53.6431C47.1249 53.3955 47.1943 53.0679 47.1127 52.7612C47.0419 52.5132 47.0043 52.2573 46.9999 52C46.9999 50.3433 48.3432 49 49.9999 49C51.6567 49 52.9999 50.3433 52.9999 52C52.9999 52.5523 53.4477 53 53.9999 53C55.8232 53.0029 57.415 54.2354 57.874 56H43.1708Z" fill="#0C221D" stroke="#0C221D" stroke-width="2.66667" mask="url(#path-3-inside-1_34_157)"/>
<path d="M28 45H26V47H27V49H26V51H28C28.5522 51 29 50.5522 29 50V46C29 45.4478 28.5522 45 28 45Z" fill="#0C221D"/>
</g>
<defs>
<clipPath id="clip0_34_157">
<rect width="60" height="60" fill="white"/>
</clipPath>
</defs>
</svg>
