<svg width="60" height="60" viewBox="0 0 60 60" fill="none" xmlns="http://www.w3.org/2000/svg">
<g clip-path="url(#clip0_28_265)">
<path d="M56.5 -6.10352e-05H26.5C24.8433 -6.10352e-05 23.5 1.3432 23.5 2.99994V5.99994H20.5C18.8433 5.99994 17.5 7.3432 17.5 8.99994V11.9999H14.5C12.8433 11.9999 11.5 13.3432 11.5 14.9999V28.2997L1.1582 32.06C0.762695 32.2036 0.5 32.5795 0.5 32.9999V35.9999C0.5 36.5522 0.947754 36.9999 1.5 36.9999H2.5V46.9999H1.5C0.947754 46.9999 0.5 47.4477 0.5 47.9999V51.9999C0.5 52.5522 0.947754 52.9999 1.5 52.9999H11.5V56.9999C11.5 58.6567 12.8433 59.9999 14.5 59.9999H44.5C46.1567 59.9999 47.5 58.6567 47.5 56.9999V53.9999H50.5C52.1567 53.9999 53.5 52.6567 53.5 50.9999V47.9999H56.5C58.1567 47.9999 59.5 46.6567 59.5 44.9999V2.99994C59.5 1.3432 58.1567 -6.10352e-05 56.5 -6.10352e-05ZM2.5 33.7001L12.5 30.0639L22.5 33.7001V34.9999H2.5V33.7001ZM20.5 46.9999H18.5V36.9999H20.5V46.9999ZM8.5 46.9999V36.9999H16.5V46.9999H8.5ZM4.5 36.9999H6.5V46.9999H4.5V36.9999ZM2.5 48.9999H22.5V50.9999H2.5V48.9999ZM45.5 56.9999C45.5 57.5522 45.0523 57.9999 44.5 57.9999H14.5C13.9478 57.9999 13.5 57.5522 13.5 56.9999V52.9999H23.5C24.0522 52.9999 24.5 52.5522 24.5 51.9999V47.9999C24.5 47.4477 24.0522 46.9999 23.5 46.9999H22.5V36.9999H23.5C24.0522 36.9999 24.5 36.5522 24.5 35.9999V32.9999C24.5 32.5795 24.2373 32.2036 23.8418 32.06L13.5 28.2997V14.9999C13.5 14.4477 13.9478 13.9999 14.5 13.9999H35.5V22.9999C35.5 23.3686 35.7031 23.7079 36.0283 23.8818C36.3535 24.0556 36.7481 24.0366 37.0552 23.832L39.5 22.2001L41.9448 23.83C42.2515 24.0346 42.646 24.0536 42.9707 23.8803C43.2959 23.707 43.4995 23.3686 43.5 22.9999V13.9999H44.5C45.0523 13.9999 45.5 14.4477 45.5 14.9999V56.9999ZM37.5 13.9999H41.5V21.1308L40.0552 20.1679C39.7188 19.9438 39.2813 19.9438 38.9448 20.1679L37.5 21.1308V13.9999ZM51.5 50.9999C51.5 51.5522 51.0523 51.9999 50.5 51.9999H47.5V14.9999C47.5 13.3432 46.1567 11.9999 44.5 11.9999H19.5V8.99994C19.5 8.44769 19.9478 7.99994 20.5 7.99994H50.5C51.0523 7.99994 51.5 8.44769 51.5 8.99994V50.9999ZM57.5 44.9999C57.5 45.5522 57.0523 45.9999 56.5 45.9999H53.5V8.99994C53.5 7.3432 52.1567 5.99994 50.5 5.99994H25.5V2.99994C25.5 2.44769 25.9478 1.99994 26.5 1.99994H56.5C57.0523 1.99994 57.5 2.44769 57.5 2.99994V44.9999Z" fill="#0C221D"/>
<path d="M19.5 18C17.291 18 15.5 19.791 15.5 22C15.5 24.209 17.291 26 19.5 26C21.709 26 23.5 24.209 23.5 22C23.5 19.791 21.709 18 19.5 18ZM19.5 24C18.3955 24 17.5 23.1045 17.5 22C17.5 20.8955 18.3955 20 19.5 20C20.6045 20 21.5 20.8955 21.5 22C21.5 23.1045 20.6045 24 19.5 24Z" fill="#0C221D"/>
<path d="M25.5 20H27.5V22H25.5V20Z" fill="#0C221D"/>
<path d="M29.5 20H33.5V22H29.5V20Z" fill="#0C221D"/>
<path d="M25.5 24H33.5V26H25.5V24Z" fill="#0C221D"/>
<path d="M26.5 32H41.5V34H26.5V32Z" fill="#0C221D"/>
<path d="M26.5 38H41.5V40H26.5V38Z" fill="#0C221D"/>
<path d="M26.5 44H41.5V46H26.5V44Z" fill="#0C221D"/>
<path d="M38.5 49.6402C37.8271 49.626 37.1616 49.7837 36.5659 50.0982C35.8979 50.4468 35.1011 50.4468 34.4331 50.0982C33.8379 49.7837 33.1729 49.626 32.5 49.6402V51.6402C32.8721 51.628 33.2407 51.7183 33.5649 51.9009C34.7808 52.5127 36.2144 52.5127 37.4302 51.9009C38.0991 51.5518 38.897 51.5518 39.5659 51.9009C40.1611 52.2154 40.8267 52.3736 41.5 52.3599V50.3599C41.1265 50.3726 40.7573 50.2818 40.4321 50.0982C39.8374 49.7842 39.1724 49.6265 38.5 49.6402Z" fill="#0C221D"/>
</g>
<defs>
<clipPath id="clip0_28_265">
<rect width="60" height="60" fill="white"/>
</clipPath>
</defs>
</svg>
