<svg width="60" height="60" viewBox="0 0 60 60" fill="none" xmlns="http://www.w3.org/2000/svg">
<g clip-path="url(#clip0_34_453)">
<path d="M45.4553 40.9515V40.9506L51.9231 43.306L52.5491 43.5336L52.7766 42.9086L53.1165 41.9769V41.976C53.1774 41.8076 53.363 41.7195 53.5315 41.7797V41.7806L59.1165 43.8138H59.1174C59.1781 43.8359 59.2308 43.8755 59.2688 43.9271L59.301 43.9818C59.3367 44.0591 59.341 44.146 59.3137 44.225L53.8928 59.1185V59.1195C53.8318 59.288 53.6456 59.376 53.4768 59.3148H53.4778L47.8918 57.2826L47.8909 57.2816L47.8313 57.2533C47.7029 57.1746 47.6427 57.0142 47.6956 56.8666L48.0344 55.934L48.262 55.307L47.635 55.0804L47.0305 54.8617L46.8118 54.7826L46.5911 54.8568L40.9104 56.7748L40.9084 56.7758C40.8568 56.7933 40.8021 56.7972 40.7493 56.7875L40.6975 56.7728L40.6946 56.7719L37.9026 55.7552L20.3528 49.3685L20.3411 49.3646L20.0627 49.2552C18.7973 48.6931 18.0008 47.4111 18.0569 46.0277L18.0823 45.7299C18.2392 44.7068 18.8647 43.8204 19.7668 43.3285L19.9514 43.2357L19.9543 43.2347C20.6942 42.8861 21.536 42.8283 22.3137 43.0697L22.469 43.1224L28.6458 45.3763L29.1975 45.5775L29.4661 45.0551C29.938 44.1383 30.8105 43.4935 31.8254 43.3119L31.8245 43.3109L45.2815 40.9349L45.2825 40.9359C45.341 40.926 45.4004 40.9318 45.4553 40.9515ZM53.385 43.1273L48.6418 56.1595L48.4143 56.7855L49.0393 57.0131L52.7639 58.3685L53.3899 58.5961L53.6174 57.9701L58.3606 44.9379L58.5881 44.3119L57.9622 44.0844L54.2385 42.7289L53.6125 42.5013L53.385 43.1273ZM45.137 41.6224L31.9377 43.9496H31.9358C31.0648 44.1069 30.3328 44.6863 29.9768 45.4886L29.9104 45.6517C29.8646 45.7708 29.8318 45.8923 29.8108 46.014L29.8069 46.0375L29.804 46.0599C29.8038 46.0612 29.8034 46.0684 29.8 46.0834L29.7981 46.0902L29.7971 46.098C29.7517 46.3282 29.7389 46.563 29.759 46.7963L29.7903 47.0287V47.0297C30.0367 48.3719 31.253 49.2938 32.5862 49.1986L32.8547 49.1654H32.8567L43.3469 47.3138L43.4602 47.9525L32.9661 49.8031C31.177 50.1138 29.473 48.9231 29.1497 47.1371C29.1283 46.9888 29.1169 46.8397 29.1145 46.6908L29.1067 46.2328L28.676 46.0756L22.2483 43.7357L22.2463 43.7347L22.1047 43.6888C21.4401 43.491 20.7247 43.5615 20.1116 43.8842L19.9817 43.9574C19.299 44.3673 18.8359 45.0617 18.7209 45.85L18.719 45.8656L18.717 45.8822C18.5935 47.1572 19.364 48.3472 20.5745 48.7592V48.7601L40.5911 56.0492L40.8108 56.1293L41.0315 56.0551L46.7122 54.1371L46.7561 54.1215C46.7926 54.1157 46.8301 54.1173 46.8665 54.1244L46.9182 54.139L46.927 54.1429L47.8586 54.4808L48.4836 54.7074L48.7112 54.0824L52.0999 44.7699L52.3274 44.1449L51.7014 43.9164L45.4807 41.6527L45.3127 41.5912L45.137 41.6224Z" fill="#0C221D" stroke="#0C221D" stroke-width="1.33182"/>
<path d="M1.18201 0.666016H9.10681C9.28624 0.666016 9.43179 0.810918 9.43201 0.990234V3.6377H11.0277L11.1527 3.58398L17.8949 0.692383L17.8978 0.691406C17.9175 0.68291 17.9378 0.676109 17.9584 0.671875L18.0199 0.666016H28.4408C29.9993 0.66192 31.4985 1.24252 32.6459 2.28613L32.8705 2.50098L32.8715 2.50195L40.9301 10.5615L40.9369 10.5684C42.0165 11.6164 42.2332 13.2681 41.4623 14.5586C41.3126 14.7902 41.1336 15.0019 40.9291 15.1865L40.3109 15.7441L40.9916 16.2246L48.5033 21.5283L48.5043 21.5293C49.4283 22.1779 49.6699 23.4432 49.0502 24.3867C48.6547 24.9775 47.9911 25.3324 47.2806 25.332L47.1156 25.3252C46.7878 25.299 46.4709 25.1954 46.1918 25.0225L46.056 24.9307L46.0551 24.9297L44.1722 23.5488L43.1127 22.7715V36.6523C43.1127 37.3788 42.524 37.9678 41.7972 37.9678H23.9662C23.2399 37.9677 22.6508 37.3786 22.6508 36.6523V22.7705L21.5912 23.5479L19.725 24.917C18.749 25.5894 17.4164 25.3593 16.722 24.4004C16.0977 23.4556 16.3343 22.185 17.2592 21.5293L25.9359 15.4033L27.6488 14.1934H23.3256L23.184 14.6689C22.8958 15.635 22.0783 16.508 20.9232 17.1504C19.7756 17.7886 18.3668 18.1552 17.0326 18.1553C15.6986 18.1553 14.2896 17.7885 13.142 17.1504C11.9869 16.508 11.1687 15.6351 10.8802 14.6689L10.7386 14.1934H9.43201V16.8408C9.43176 17.0201 9.28622 17.165 9.10681 17.165H1.18201C1.00304 17.1648 0.858032 17.0198 0.857788 16.8408V0.990234C0.858003 0.811254 1.00302 0.666218 1.18201 0.666016ZM27.2631 37.3184H32.557V30.043H27.2631V37.3184ZM32.7816 12.4795C32.5715 12.8809 32.282 13.2237 31.9398 13.4961C31.9268 13.5051 31.9136 13.514 31.9008 13.5234L31.7191 13.6562C31.2552 13.9649 30.713 14.1532 30.141 14.1875L29.9164 14.1934H28.7748L28.6019 14.3154L17.639 22.0547L17.6322 22.0596C17.0014 22.5162 16.8398 23.389 17.2679 24.041L17.2758 24.0518L17.2826 24.0625C17.524 24.4006 17.8948 24.6182 18.3011 24.668L18.4779 24.6787H18.4808C18.7482 24.6779 19.0102 24.6033 19.2377 24.4639L19.3324 24.4004L19.3353 24.3984L32.4974 14.7383C32.5704 14.6886 32.6413 14.636 32.7113 14.582C32.8077 14.5228 32.9283 14.5182 33.0287 14.5693L33.0736 14.5977L46.4369 24.4053L46.4388 24.4062C46.7528 24.635 47.1449 24.7251 47.5267 24.6602L47.5277 24.6611C47.531 24.6606 47.5342 24.6597 47.5375 24.6592C47.54 24.6587 47.5428 24.6587 47.5453 24.6582L47.5443 24.6572C48.0845 24.5666 48.5236 24.1802 48.683 23.6621L48.7113 23.5557V23.5547C48.8399 22.9812 48.6073 22.3881 48.1244 22.0547H48.1254L39.6742 16.0908L39.4642 15.9424L39.2084 15.9746C38.3133 16.0853 37.4167 15.8053 36.7455 15.2119L36.6146 15.0889L33.8422 12.3174L33.2015 11.6768L32.7816 12.4795ZM17.9584 1.36914L11.2162 4.26074L11.2142 4.26172C11.1947 4.2702 11.1744 4.27699 11.1537 4.28125L11.0912 4.28711H9.43201V13.5439H11.0883C11.2677 13.5439 11.4132 13.6888 11.4135 13.8682C11.4135 14.9781 12.2884 15.8959 13.2758 16.4883C14.3046 17.1055 15.6618 17.5059 17.0326 17.5059C18.4034 17.5058 19.7598 17.1054 20.7885 16.4883C21.7758 15.8959 22.6508 14.9781 22.6508 13.8682C22.651 13.689 22.7968 13.5439 22.976 13.5439H29.9095C31.372 13.5439 32.557 12.3583 32.557 10.8965C32.5569 9.43481 31.3719 8.25 29.9095 8.25H21.6605V7.60059H29.9086L30.2172 7.61523C31.7463 7.76283 32.988 8.96217 33.1644 10.5156L33.1908 10.7461L33.3549 10.9111L37.0844 14.6406L37.0961 14.6504C37.5699 15.0824 38.1859 15.3179 38.8197 15.3164L39.0922 15.3008H39.0931C39.821 15.2201 40.479 14.8308 40.8998 14.2314L40.9174 14.2061L40.932 14.1797C41.4912 13.2045 41.3537 11.9878 40.6117 11.1641L40.4554 11.0049L32.4125 2.96289H32.4135C31.3607 1.90411 29.9275 1.31051 28.434 1.31543H18.0844L17.9584 1.36914ZM1.5072 16.5156H8.78259V1.31543H1.5072V16.5156ZM42.4633 22.2939L42.1918 22.0947L33.2758 15.5508L32.8822 15.2617L32.4877 15.5508L23.5726 22.0947L23.3002 22.2939V37.3184H26.6136V29.7188C26.6136 29.5396 26.7587 29.3937 26.9379 29.3936H32.8822C33.0616 29.3937 33.2064 29.5394 33.2064 29.7188V37.3184H42.4633V22.2939Z" fill="#0C221D" stroke="#0C221D" stroke-width="1.33182"/>
<path d="M35.8533 29.3937H39.8162C39.9956 29.3937 40.1402 29.5386 40.1404 29.7179V33.6808C40.1404 33.8602 39.9957 34.005 39.8162 34.005H35.8533C35.6742 34.0048 35.5292 33.8599 35.5291 33.6808V29.7179C35.5293 29.5389 35.6743 29.3939 35.8533 29.3937ZM36.1785 33.3556H39.491V30.0431H36.1785V33.3556Z" fill="#0C221D" stroke="#0C221D" stroke-width="1.33182"/>
<path d="M29.91 21.7934C29.91 23.4345 31.2407 24.7652 32.8819 24.7652C34.5235 24.7652 35.8537 23.4345 35.8537 21.7934C35.8537 20.1522 34.5235 18.8215 32.8819 18.8215C31.2407 18.8215 29.91 20.1522 29.91 21.7934ZM33.8725 21.7934C33.8725 22.3404 33.4294 22.784 32.8819 22.784C32.3348 22.784 31.8913 22.3404 31.8913 21.7934C31.8913 21.2463 32.3348 20.8028 32.8819 20.8028C33.4294 20.8028 33.8725 21.2463 33.8725 21.7934Z" fill="#0C221D"/>
</g>
<defs>
<clipPath id="clip0_34_453">
<rect width="60" height="60" fill="white"/>
</clipPath>
</defs>
</svg>
