<svg width="14" height="14" viewBox="0 0 14 14" fill="none" xmlns="http://www.w3.org/2000/svg">
<path d="M7.875 10.0625L7.4375 10.0625V6.15234C7.4375 6.14775 7.43619 6.14337 7.43619 6.13856C7.43619 6.13375 7.4375 6.12961 7.4375 6.12501C7.4375 5.88351 7.2415 5.68751 7 5.68751H6.125C5.8835 5.68751 5.6875 5.88351 5.6875 6.12501C5.6875 6.36651 5.8835 6.56251 6.125 6.56251H6.5625V10.0625H6.125C5.8835 10.0625 5.6875 10.2585 5.6875 10.5C5.6875 10.7415 5.8835 10.9375 6.125 10.9375H7.875C8.1165 10.9375 8.3125 10.7415 8.3125 10.5C8.3125 10.2585 8.1165 10.0625 7.875 10.0625ZM7 4.8125C7.48322 4.8125 7.875 4.42072 7.875 3.9375C7.875 3.45428 7.48322 3.0625 7 3.0625C6.51678 3.0625 6.125 3.45428 6.125 3.9375C6.125 4.42072 6.51678 4.8125 7 4.8125ZM7 0C3.13403 0 0 3.13403 0 7C0 10.8662 3.13403 14 7 14C10.8662 14 14 10.8662 14 7C14 3.13403 10.8662 0 7 0ZM7 13.1388C3.62272 13.1388 0.875 10.3773 0.875 6.99997C0.875 3.62269 3.62272 0.874973 7 0.874973C10.3773 0.874973 13.125 3.62271 13.125 6.99997C13.125 10.3772 10.3773 13.1388 7 13.1388Z" fill="#606967"/>
</svg>
