<svg width="17" height="17" viewBox="0 0 17 17" fill="none" xmlns="http://www.w3.org/2000/svg">
<path d="M10.2711 1.58828C10.2923 1.50896 10.329 1.4346 10.3789 1.36944C10.4289 1.30429 10.4912 1.24962 10.5623 1.20855C10.6334 1.16749 10.7119 1.14084 10.7933 1.13012C10.8747 1.1194 10.9574 1.12483 11.0367 1.14609C12.1954 1.4484 13.2525 2.0541 14.0992 2.90081C14.9459 3.74752 15.5516 4.80464 15.8539 5.96328C15.8752 6.04259 15.8806 6.1253 15.8699 6.20671C15.8592 6.28811 15.8325 6.36661 15.7915 6.43771C15.7504 6.50881 15.6957 6.57112 15.6306 6.62109C15.5654 6.67105 15.491 6.70769 15.4117 6.7289C15.3589 6.74277 15.3046 6.74986 15.25 6.75C15.1123 6.74999 14.9784 6.7045 14.8692 6.62058C14.76 6.53666 14.6816 6.41902 14.6461 6.28594C14.3995 5.34009 13.9052 4.47711 13.2141 3.78595C12.5229 3.09479 11.6599 2.60046 10.7141 2.3539C10.6347 2.33277 10.5602 2.2962 10.495 2.24627C10.4298 2.19634 10.375 2.13404 10.3339 2.06293C10.2927 1.99182 10.266 1.9133 10.2552 1.83185C10.2445 1.75041 10.2499 1.66764 10.2711 1.58828ZM10.0891 4.8539C11.1664 5.1414 11.8586 5.83359 12.1461 6.91093C12.1816 7.04402 12.26 7.16166 12.3692 7.24558C12.4784 7.3295 12.6123 7.37499 12.75 7.375C12.8046 7.37486 12.8589 7.36777 12.9117 7.3539C12.991 7.33269 13.0654 7.29605 13.1306 7.24609C13.1957 7.19612 13.2504 7.13381 13.2915 7.06271C13.3325 6.99161 13.3592 6.91311 13.3699 6.83171C13.3806 6.7503 13.3752 6.66759 13.3539 6.58828C12.9539 5.0914 11.9086 4.04609 10.4117 3.64609C10.2516 3.6033 10.081 3.6259 9.93745 3.7089C9.79394 3.7919 9.68928 3.9285 9.64649 4.08867C9.6037 4.24884 9.6263 4.41944 9.7093 4.56295C9.79229 4.70646 9.9289 4.81112 10.0891 4.8539ZM16.4906 12.3031C16.3513 13.3617 15.8314 14.3334 15.0281 15.0368C14.2247 15.7401 13.1927 16.1269 12.125 16.125C5.92188 16.125 0.875007 11.0781 0.875007 4.875C0.873093 3.80726 1.25992 2.77533 1.96324 1.97195C2.66655 1.16857 3.63826 0.648675 4.69688 0.509373C4.96458 0.476687 5.23567 0.531453 5.46968 0.665497C5.7037 0.799541 5.88809 1.00567 5.99532 1.25312L7.64532 4.93672V4.94609C7.72742 5.13551 7.76133 5.34231 7.74401 5.54803C7.7267 5.75374 7.6587 5.95197 7.5461 6.125C7.53204 6.14609 7.51719 6.16562 7.50157 6.18515L5.87501 8.11328C6.46016 9.30234 7.70391 10.5352 8.9086 11.1219L10.8102 9.5039C10.8288 9.48821 10.8484 9.4736 10.8688 9.46015C11.0416 9.34484 11.2405 9.27446 11.4475 9.25536C11.6544 9.23626 11.8628 9.26906 12.0539 9.35078L12.0641 9.35547L15.7445 11.0047C15.9924 11.1115 16.1991 11.2958 16.3335 11.5298C16.468 11.7639 16.5231 12.0352 16.4906 12.3031ZM15.25 12.1469C15.25 12.1469 15.2445 12.1469 15.2414 12.1469L11.5695 10.5023L9.66719 12.1203C9.64874 12.1359 9.62944 12.1505 9.60938 12.1641C9.4295 12.2841 9.22157 12.3554 9.0059 12.371C8.79023 12.3866 8.5742 12.346 8.37891 12.2531C6.91563 11.5461 5.45704 10.0984 4.74923 8.65078C4.6555 8.45692 4.61344 8.24213 4.62713 8.02723C4.64082 7.81234 4.70978 7.60462 4.82735 7.42422C4.8406 7.40303 4.85549 7.38292 4.87188 7.36406L6.50001 5.43359L4.85938 1.76172C4.85907 1.7586 4.85907 1.75546 4.85938 1.75234C4.10177 1.85117 3.40616 2.22278 2.90283 2.79759C2.3995 3.37239 2.12296 4.11097 2.12501 4.875C2.1279 7.52627 3.1824 10.0681 5.05714 11.9429C6.93187 13.8176 9.47373 14.8721 12.125 14.875C12.8886 14.8776 13.6269 14.602 14.2021 14.0998C14.7772 13.5976 15.1497 12.903 15.25 12.1461V12.1469Z" fill="#2D302F"/>
</svg>
