<svg width="20" height="20" viewBox="0 0 20 20" fill="none" xmlns="http://www.w3.org/2000/svg">
<g clip-path="url(#clip0_28_45)">
<path d="M9.98749 12.84L12.6892 15.9117C13.6892 17.0492 14.19 17.6183 14.7142 17.4792C15.2375 17.3408 15.4175 16.5925 15.7767 15.095L17.7683 6.78833C18.3225 4.48166 18.5992 3.32916 17.9842 2.75999C17.3692 2.19083 16.3033 2.61416 14.1717 3.45999L4.28332 7.38749C2.57832 8.06499 1.72582 8.40332 1.67165 8.98499C1.66528 9.04426 1.66528 9.10405 1.67165 9.16333C1.72415 9.74583 2.57499 10.0867 4.27832 10.7692C5.04915 11.0783 5.43499 11.2333 5.71165 11.5292C5.74277 11.5625 5.77277 11.5969 5.80165 11.6325C6.05665 11.9492 6.16499 12.3658 6.38249 13.1958L6.78999 14.7517C7.00082 15.56 7.10665 15.965 7.38415 16.02C7.66165 16.075 7.90249 15.74 8.38499 15.0692L9.98749 12.84ZM9.98749 12.84L9.72332 12.565C9.42165 12.25 9.27082 12.0933 9.27082 11.8983C9.27082 11.7033 9.42082 11.5458 9.72332 11.2317L12.7008 8.12832" stroke="#F0F1F1" stroke-linecap="round" stroke-linejoin="round"/>
</g>
<defs>
<clipPath id="clip0_28_45">
<rect width="20" height="20" fill="white"/>
</clipPath>
</defs>
</svg>
