<svg width="220" height="68" viewBox="0 0 220 68" fill="none" xmlns="http://www.w3.org/2000/svg">
<g clip-path="url(#clip0_26_226)">
<path d="M78.0574 60.0904H78.9532V54.4724H78.0574V60.0904ZM72.2094 34.8945C70.005 34.8945 68.2235 36.6734 68.2235 38.8744V41.8995C68.2235 44.1005 70.005 45.8794 72.2094 45.8794C74.4137 45.8794 76.1953 44.1005 76.1953 41.8995V38.8744C76.1953 36.6734 74.4137 34.8945 72.2094 34.8945ZM74.4238 41.8995C74.4238 43.1156 73.4373 44.1105 72.2094 44.1105C70.9814 44.1105 69.995 43.1256 69.995 41.8995V38.8744C69.995 37.6583 70.9814 36.6633 72.2094 36.6633C73.4373 36.6633 74.4238 37.6482 74.4238 38.8744V41.8995ZM85.8178 55.4472C86.0795 55.2764 86.3915 55.1859 86.7338 55.1859C87.1263 55.1859 87.4484 55.2864 87.6799 55.4874C87.9114 55.6884 88.0624 55.9095 88.1329 56.1708H89.0287C88.9784 55.8191 88.8475 55.5075 88.6361 55.2462C88.4248 54.9849 88.153 54.7739 87.8208 54.6332C87.4887 54.4824 87.1163 54.4121 86.7136 54.4121C86.1902 54.4121 85.7272 54.5327 85.3246 54.7839C84.9321 55.0352 84.62 55.3769 84.3986 55.809C84.1772 56.2513 84.0664 56.7538 84.0664 57.3166C84.0664 57.8794 84.1772 58.3719 84.3885 58.8141C84.5999 59.2462 84.9019 59.598 85.3045 59.8392C85.697 60.0904 86.1701 60.211 86.7237 60.211C87.1565 60.211 87.539 60.1306 87.8611 59.9799C88.1832 59.8291 88.455 59.6181 88.6462 59.3467C88.8475 59.0854 88.9683 58.7839 89.0186 58.4523H88.1228C88.0624 58.6533 87.9718 58.8342 87.841 58.9749C87.7101 59.1256 87.5491 59.2362 87.3578 59.3065C87.1666 59.3869 86.9552 59.4271 86.7237 59.4271C86.3714 59.4271 86.0594 59.3367 85.7977 59.1558C85.536 58.9749 85.3347 58.7236 85.1837 58.402C85.0428 58.0804 84.9723 57.6985 84.9723 57.2663C84.9723 56.8342 85.0428 56.4724 85.1938 56.1608C85.3447 55.8492 85.5461 55.598 85.8078 55.4271L85.8178 55.4472ZM78.5204 52.3819C78.3493 52.3819 78.1983 52.4422 78.0674 52.5528C77.9467 52.6633 77.8762 52.804 77.8762 52.9648C77.8762 53.1256 77.9366 53.2663 78.0674 53.3769C78.1983 53.4874 78.3392 53.5477 78.5204 53.5477C78.7016 53.5477 78.8425 53.4874 78.9733 53.3769C79.0941 53.2663 79.1646 53.1256 79.1646 52.9648C79.1646 52.804 79.1042 52.6633 78.9733 52.5528C78.8525 52.4422 78.7016 52.3819 78.5204 52.3819ZM53.5883 39.5377H49.1696V35.0854H47.3981V45.7588H49.1696V41.3065H53.5883V45.7588H55.3598V35.0854H53.5883V39.5377ZM125.838 53.9598C126.321 53.9598 126.714 53.8392 126.995 53.5779C127.277 53.3266 127.418 53.005 127.418 52.6131H126.583C126.583 52.804 126.522 52.9648 126.412 53.1156C126.301 53.2563 126.11 53.3266 125.838 53.3266C125.566 53.3266 125.385 53.2563 125.274 53.1156C125.164 52.9749 125.113 52.804 125.113 52.6131H124.278C124.278 53.005 124.419 53.3266 124.701 53.5779C124.982 53.8291 125.365 53.9598 125.848 53.9598H125.838ZM-3.01962 68H35.7826V29.2563H-3.01962V68ZM154.605 43.9698H153.931L150.921 35.0653H148.656L145.647 43.9698H144.972V45.7387H154.615V43.9698H154.605ZM147.418 43.9698L149.784 36.9648L152.149 43.9698H147.408H147.418ZM50.921 57.407C50.7599 57.2864 50.5687 57.2161 50.3473 57.206V57.1457C50.6291 57.0653 50.8606 56.9246 51.0418 56.7337C51.223 56.5427 51.3236 56.2814 51.3236 55.9698C51.3236 55.6683 51.2431 55.407 51.072 55.1759C50.9009 54.9447 50.6694 54.7538 50.3674 54.6131C50.0654 54.4724 49.7031 54.402 49.2904 54.402C48.8777 54.402 48.5254 54.4724 48.2134 54.603C47.9014 54.7337 47.6497 54.9146 47.4686 55.1558C47.2874 55.3869 47.1867 55.6583 47.1767 55.9598H48.1228C48.1329 55.7286 48.2537 55.5377 48.4852 55.3869C48.7167 55.2362 48.9985 55.1658 49.3407 55.1658C49.6829 55.1658 49.9446 55.2462 50.1258 55.397C50.307 55.5477 50.4077 55.7487 50.4077 56C50.4077 56.2312 50.3171 56.4322 50.146 56.5829C49.9748 56.7437 49.7131 56.8141 49.3508 56.8141H48.3442V57.5879H49.3508C49.5924 57.5879 49.7937 57.6281 49.9748 57.7085C50.146 57.7889 50.2869 57.8995 50.3775 58.0402C50.4781 58.1809 50.5184 58.3417 50.5184 58.5327C50.5184 58.8543 50.3875 59.0854 50.1359 59.2261C49.8843 59.3668 49.5722 59.4372 49.2099 59.4372C48.8475 59.4372 48.5657 59.3668 48.3543 59.2362C48.1329 59.1055 48.0121 58.9146 47.992 58.6633H47.0357C47.0458 58.9749 47.1465 59.2362 47.3377 59.4774C47.5289 59.7085 47.7906 59.8894 48.1127 60.0201C48.4449 60.1507 48.8073 60.211 49.23 60.211C49.6527 60.211 50.0352 60.1407 50.3674 60C50.6996 59.8593 50.9613 59.6683 51.1525 59.4171C51.3437 59.1658 51.4343 58.8643 51.4343 58.5226C51.4343 58.2915 51.384 58.0703 51.2934 57.8794C51.2028 57.6884 51.072 57.5276 50.9109 57.407H50.921ZM71.7564 54.4724H71.4947L69.4514 58.9146L67.4384 54.4724H66.2506V60.0904H67.1465V55.7186L69.079 60.0904H69.8138L71.7464 55.7889V60.0904H72.6422V54.4724H71.7464H71.7564ZM64.7207 0H14.6653L40.1107 25.407H90.1661L64.7207 0ZM60.0604 54.7236C59.8289 54.593 59.5974 54.5025 59.3458 54.4623C59.1042 54.4221 58.8827 54.402 58.6915 54.402C58.3996 54.402 58.0976 54.4422 57.7957 54.5126C57.4937 54.593 57.2119 54.7236 56.9602 54.9146C56.7086 55.1055 56.4972 55.3769 56.3463 55.7186L57.2018 56.01C57.3025 55.809 57.4736 55.6181 57.7152 55.4372C57.9567 55.2563 58.299 55.1658 58.7217 55.1658C59.1444 55.1658 59.4464 55.2663 59.6477 55.4673C59.849 55.6683 59.9497 55.9497 59.9497 56.3116V56.3417C59.9497 56.4824 59.8994 56.5829 59.7987 56.6332C59.698 56.6935 59.537 56.7337 59.3156 56.7538C59.0941 56.7739 58.8022 56.8141 58.4499 56.8543C58.1782 56.8844 57.9064 56.9347 57.6447 56.995C57.3729 57.0553 57.1314 57.1357 56.9099 57.2563C56.6885 57.3668 56.5174 57.5276 56.3765 57.7286C56.2456 57.9296 56.1751 58.191 56.1751 58.5126C56.1751 58.8744 56.2657 59.1859 56.4368 59.4472C56.618 59.7085 56.8596 59.8995 57.1616 60.0402C57.4635 60.1708 57.7957 60.2412 58.1681 60.2412C58.5103 60.2412 58.7922 60.1909 59.0337 60.0904C59.2652 59.9899 59.4565 59.8794 59.5974 59.7387C59.7383 59.598 59.839 59.4673 59.8994 59.3467H59.9497V60.1105H60.8455V56.4121C60.8455 55.9698 60.765 55.608 60.614 55.3467C60.463 55.0854 60.2718 54.8844 60.0403 54.7538L60.0604 54.7236ZM59.9597 58.0502C59.9597 58.2814 59.8994 58.5025 59.7685 58.7236C59.6477 58.9347 59.4565 59.1055 59.2149 59.2462C58.9733 59.3769 58.6714 59.4472 58.309 59.4472C57.9467 59.4472 57.6548 59.3668 57.4233 59.2161C57.1918 59.0653 57.071 58.8342 57.071 58.5327C57.071 58.3116 57.1314 58.1407 57.2521 58.01C57.3729 57.8794 57.534 57.7889 57.7353 57.7186C57.9366 57.6482 58.158 57.608 58.3895 57.5779C58.4902 57.5678 58.611 57.5477 58.772 57.5377C58.9331 57.5176 59.0941 57.4975 59.2552 57.4673C59.4263 57.4372 59.5672 57.407 59.698 57.3769C59.8289 57.3367 59.9094 57.3065 59.9497 57.2563V58.0502H59.9597ZM192.924 45.7387H194.696V35.0653H192.924V39.5176H189.844C189.099 39.5176 188.505 38.9146 188.505 38.1809V35.0653H186.734V38.1809C186.734 39.8995 188.133 41.2965 189.854 41.2965H192.924V45.7387ZM182.496 56.9548C182.476 57.4271 182.446 57.809 182.406 58.1206C182.365 58.4221 182.315 58.6633 182.235 58.8342C182.164 59.005 182.063 59.1256 181.953 59.1859C181.832 59.2563 181.691 59.2864 181.51 59.2864H181.298V60.0904H181.6C181.923 60.0904 182.194 60.0301 182.416 59.9095C182.627 59.7889 182.808 59.608 182.939 59.3769C183.07 59.1357 183.171 58.8442 183.231 58.4925C183.291 58.1407 183.342 57.7387 183.362 57.2764L183.452 55.2764H185.596V60.0904H186.492V54.4724H182.597L182.486 56.9548H182.496ZM195.974 55.0151C195.732 54.794 195.461 54.6432 195.159 54.5427C194.857 54.4422 194.565 54.392 194.253 54.392C193.729 54.392 193.266 54.5126 192.864 54.7638C192.471 55.0151 192.159 55.3568 191.938 55.799C191.716 56.2412 191.605 56.7437 191.605 57.3266C191.605 57.9095 191.716 58.402 191.938 58.8342C192.159 59.2663 192.471 59.608 192.874 59.8392C193.286 60.0804 193.77 60.201 194.333 60.201C194.726 60.201 195.088 60.1407 195.4 60.0201C195.722 59.8995 195.984 59.7387 196.195 59.5276C196.407 59.3166 196.568 59.0653 196.658 58.7839L195.793 58.5528C195.712 58.7437 195.611 58.9146 195.471 59.0452C195.33 59.1759 195.169 59.2764 194.977 59.3367C194.786 59.397 194.575 59.4372 194.333 59.4372C193.971 59.4372 193.649 59.3568 193.377 59.206C193.105 59.0553 192.884 58.8342 192.733 58.5327C192.592 58.2714 192.531 57.9397 192.511 57.5678H196.749V57.206C196.749 56.6834 196.678 56.2412 196.527 55.8794C196.387 55.5176 196.185 55.2362 195.944 55.0151H195.974ZM192.542 56.8241C192.562 56.5628 192.612 56.3216 192.733 56.0804C192.874 55.809 193.075 55.5879 193.337 55.4171C193.598 55.2462 193.91 55.1658 194.263 55.1658C194.585 55.1658 194.867 55.2362 195.108 55.3769C195.35 55.5176 195.531 55.7186 195.662 55.9698C195.793 56.2211 195.853 56.5025 195.853 56.8141H192.531L192.542 56.8241ZM171.827 60.0904H172.723V55.2764H175.521V60.0904H176.417V54.4724H171.817V60.0904H171.827ZM173.568 45.7387H175.34L171.736 35.0653H169.472L165.868 45.7387H167.64L168.546 43.0653H172.672L173.578 45.7387H173.568ZM169.129 41.2965L170.599 36.9548L172.068 41.2965H169.139H169.129ZM97.3528 42.6231C97.3528 41.5377 96.7891 40.5829 95.9436 40.0201C96.3261 39.4975 96.5677 38.8643 96.5677 38.1708C96.5677 36.4523 95.1787 35.0653 93.4575 35.0653H89.381V45.7387H94.2325C95.9537 45.7387 97.3528 44.3417 97.3528 42.6231ZM91.1525 36.8342H93.4474C94.1923 36.8342 94.7861 37.4372 94.7861 38.1708C94.7861 38.9045 94.2124 39.4874 93.4877 39.5075H91.1525V36.8342ZM91.1525 41.2864H94.2325C94.9774 41.2864 95.5712 41.8894 95.5712 42.6231C95.5712 43.3568 94.9673 43.9598 94.2325 43.9598H91.1525V41.2764V41.2864ZM212.874 55.4271C213.135 55.2563 213.447 55.1658 213.79 55.1658C214.182 55.1658 214.504 55.2663 214.736 55.4673C214.967 55.6683 215.118 55.8894 215.189 56.1507H216.085C216.034 55.799 215.903 55.4874 215.692 55.2261C215.481 54.9648 215.209 54.7538 214.877 54.6131C214.545 54.4623 214.172 54.392 213.77 54.392C213.246 54.392 212.783 54.5126 212.38 54.7638C211.988 55.0151 211.676 55.3568 211.454 55.7889C211.233 56.2311 211.122 56.7337 211.122 57.2965C211.122 57.8593 211.233 58.3518 211.444 58.794C211.656 59.2261 211.958 59.5779 212.36 59.8191C212.753 60.0703 213.226 60.1909 213.78 60.1909C214.212 60.1909 214.595 60.1105 214.917 59.9598C215.239 59.809 215.511 59.598 215.702 59.3266C215.903 59.0653 216.024 58.7638 216.074 58.4322H215.179C215.118 58.6332 215.028 58.8141 214.897 58.9548C214.766 59.1055 214.605 59.2161 214.414 59.2864C214.222 59.3668 214.011 59.407 213.78 59.407C213.427 59.407 213.115 59.3166 212.854 59.1357C212.592 58.9548 212.391 58.7035 212.24 58.3819C212.099 58.0603 212.028 57.6784 212.028 57.2462C212.028 56.8141 212.099 56.4523 212.25 56.1407C212.391 55.8291 212.602 55.5779 212.864 55.407L212.874 55.4271ZM215.199 45.7286H216.97L213.367 35.0553H211.102L207.499 45.7286H209.27L210.176 43.0553H214.303L215.209 45.7286H215.199ZM210.76 41.2864L212.23 36.9447L213.699 41.2864H210.77H210.76ZM206.653 54.4623H205.496L203.392 56.9045H202.798V54.4623H201.902V60.0804H202.798V57.7085H203.603L205.526 60.0804H206.683L204.288 57.1658L206.653 54.4623ZM112.703 35.0553L109.099 45.7286H110.871L111.777 43.0553H115.903L116.809 45.7286H118.581L114.977 35.0553H112.713H112.703ZM112.37 41.2864L113.84 36.9447L115.31 41.2864H112.38H112.37ZM114.192 58.804V54.4623H113.296V60.0804H114.343L117.141 55.7387V60.0804H118.037V54.4623H117.001L114.182 58.804H114.192ZM108.535 54.4623H107.378L105.274 56.9045H104.68V54.4623H103.785V60.0804H104.68V57.7085H105.486L107.408 60.0804H108.566L106.17 57.1658L108.535 54.4623ZM165.526 54.4623H165.264L163.221 58.9045L161.208 54.4623H160.02V60.0804H160.916V55.7085L162.849 60.0804H163.583L165.516 55.7789V60.0804H166.412V54.4623H165.516H165.526ZM96.5375 56.4925H94.9874V54.4623H94.0916V60.0804H96.5476C97.0005 60.0804 97.3931 60 97.7051 59.8392C98.0171 59.6784 98.2587 59.4573 98.4197 59.1859C98.5808 58.9146 98.6613 58.603 98.6613 58.2714C98.6613 57.7588 98.4801 57.3367 98.1178 57.005C97.7554 56.6734 97.232 56.5025 96.5476 56.5025L96.5375 56.4925ZM97.4132 59.005C97.1817 59.1859 96.8898 59.2764 96.5375 59.2764H94.9874V57.3065H96.5375C96.8898 57.3065 97.1817 57.397 97.4132 57.5879C97.6447 57.7789 97.7554 58.0201 97.7554 58.3116C97.7554 58.603 97.6447 58.8241 97.4132 59.005ZM124.338 58.804V54.4623H123.442V60.0804H124.489L127.287 55.7387V60.0804H128.183V54.4623H127.146L124.328 58.804H124.338ZM153.639 54.7538C153.246 54.5126 152.783 54.392 152.25 54.392C151.716 54.392 151.263 54.5126 150.861 54.7538C150.458 54.995 150.156 55.3367 149.935 55.7688C149.713 56.201 149.602 56.7136 149.602 57.2965C149.602 57.8794 149.713 58.3819 149.935 58.8141C150.156 59.2462 150.468 59.5879 150.861 59.8291C151.253 60.0703 151.716 60.1909 152.25 60.1909C152.783 60.1909 153.236 60.0703 153.639 59.8291C154.031 59.5879 154.343 59.2462 154.565 58.8141C154.786 58.3819 154.897 57.8693 154.897 57.2965C154.897 56.7236 154.786 56.201 154.565 55.7688C154.343 55.3367 154.031 54.995 153.639 54.7538ZM153.82 58.3518C153.699 58.6734 153.508 58.9347 153.246 59.1256C152.984 59.3266 152.652 59.4171 152.26 59.4171C151.867 59.4171 151.525 59.3166 151.273 59.1256C151.012 58.9246 150.82 58.6633 150.7 58.3518C150.579 58.0301 150.508 57.6784 150.508 57.3065C150.508 56.9347 150.569 56.5829 150.7 56.2613C150.82 55.9397 151.012 55.6784 151.273 55.4774C151.535 55.2764 151.867 55.1759 152.26 55.1759C152.652 55.1759 152.994 55.2764 153.246 55.4774C153.508 55.6784 153.699 55.9397 153.82 56.2613C153.941 56.5829 154.011 56.9347 154.011 57.3065C154.011 57.6784 153.951 58.0301 153.82 58.3518ZM145.123 54.4724H143.966L141.862 56.9146H141.268V54.4724H140.372V60.0904H141.268V57.7186H142.073L143.996 60.0904H145.154L142.758 57.1759L145.123 54.4724Z" fill="#F0F1F1"/>
</g>
<defs>
<clipPath id="clip0_26_226">
<rect width="220" height="68" fill="white"/>
</clipPath>
</defs>
</svg>
